<svg version="1.1" id="Layer_1" xmlns="http://www.w3.org/2000/svg" xmlns:xlink="http://www.w3.org/1999/xlink" x="0px" y="0px" viewBox="0 0 500 500" style="width: 189px;" xml:space="preserve" data-imageid="chart-5-91" imageName="Chart 5" class="illustrations_image">
<style type="text/css">
	.st0_chart-5-91{fill:#E6E7EB;}
	.st1_chart-5-91{fill:url(#SVGID_1_);}
	.st2_chart-5-91{fill:url(#SVGID_00000181805460947270533740000004331444429915256236_);}
	.st3_chart-5-91{fill:url(#SVGID_00000045608663355728934160000001699971245714744192_);}
	.st4_chart-5-91{fill:#603813;}
	.st5_chart-5-91{fill:#FFCB44;}
	.st6_chart-5-91{fill:#68E1FD;}
	.st7_chart-5-91{opacity:0.1;enable-background:new    ;}
	.st8_chart-5-91{fill:#C90180;}
	.st9_chart-5-91{fill:#F0008D;}
	.st10_chart-5-91{opacity:0.25;enable-background:new    ;}
	.st11_chart-5-91{fill:#EDAF24;}
	.st12_chart-5-91{fill:#F9BFA0;}
</style>
<path id="Base_chart-5-91" class="st0_chart-5-91" d="M30,287.3l172.5,99.6c8.8,5,19.5,5,28.3,0l238.6-137.7c5.5-3.2,7.4-10.2,4.2-15.7&#10;&#9;c-1-1.7-2.5-3.2-4.2-4.2L292.3,126.5c-4.6-2.7-10.3-2.7-14.9,0L30,269.4c-4.9,2.9-6.6,9.2-3.7,14.2C27.2,285.1,28.5,286.4,30,287.3z&#10;&#9;"/>
<g id="Shadow_chart-5-91">
	
		<linearGradient id="SVGID_1_-chart-5-91" gradientUnits="userSpaceOnUse" x1="225.1758" y1="-590.8015" x2="298.2557" y2="-674.4515" gradientTransform="matrix(1 -1.000000e-02 1.000000e-02 1 -57.7 928.04)">
		<stop offset="0" style="stop-color:#E6E7EB"/>
		<stop offset="0.92" style="stop-color:#A7A5A6"/>
	</linearGradient>
	<path class="st1_chart-5-91" d="M142.3,241.5c-4.2,1-51,32.2-51,32.2s-2,36.9,47.9,62.4s81.2,16,81.2,16l101-60.2"/>
	
		<linearGradient id="SVGID_00000179624917315799422740000011009780818409009341_-chart-5-91" gradientUnits="userSpaceOnUse" x1="375.6744" y1="-659.1732" x2="412.9744" y2="-683.0132" gradientTransform="matrix(1 0 0 1 0 919.8)">
		<stop offset="0" style="stop-color:#E6E7EB"/>
		<stop offset="0.92" style="stop-color:#A7A5A6"/>
	</linearGradient>
	<path style="fill:url(#SVGID_00000179624917315799422740000011009780818409009341_);" d="M404.2,250.1c0,0-39.5,27.9-42.3,26.5&#10;&#9;&#9;s-10.1-7.8-9.3-9.6s36.3-22.3,36.3-22.3s5-4.6,8.1-4.1S404.2,250.1,404.2,250.1z"/>
	
		<linearGradient id="SVGID_00000114072861540467587430000014080458580335599292_-chart-5-91" gradientUnits="userSpaceOnUse" x1="73.0081" y1="-613.571" x2="83.5581" y2="-633.2911" gradientTransform="matrix(1 0 0 1 0 919.8)">
		<stop offset="0" style="stop-color:#E6E7EB"/>
		<stop offset="0.92" style="stop-color:#A7A5A6"/>
	</linearGradient>
	<polyline style="fill:url(#SVGID_00000114072861540467587430000014080458580335599292_);" points="57.1,281.1 36.5,291 87.3,320.4 &#10;&#9;&#9;117.3,306.9 &#9;"/>
</g>
<g id="Pie_Chart_and_Character_chart-5-91">
	<path class="st4_chart-5-91" d="M336.5,258.8l-0.1,3.7c0,0-0.4,3.2-1.7,4.5s-6,2.6-5.5,4.7s2.7,3.1,5.4,2.4s5.2-1.4,6.8-3.7s2.6-7.3,2.6-7.3&#10;&#9;&#9;s-0.5,6,0.2,5.9c1.1-0.3,2.2-0.6,3.2-1c0.3,0-1-8.6-2-10.8C342.8,258.7,339.6,259.3,336.5,258.8z"/>
	<path class="st5_chart-5-91" d="M347.5,193.6c-0.9,0.3-16.9,19.6-17.2,24.8s1,39.1,2.7,40.4s9.4,2.4,16-1.6c0,0-4.7-33.4-2.8-36.3&#10;&#9;&#9;s17.3-12.5,18-16.2"/>
	<path class="st6_chart-5-91 targetColor" d="M297.3,119.8c-16.4-6.6-36.3-10.5-57.8-10.5c-52.5,0-95.7,23.2-100.6,52.9l0,0v87.4l100.5,3.9l58-45.4&#10;&#9;&#9;L297.3,119.8L297.3,119.8z" style="fill: rgb(104, 225, 253);"/>
	<polygon class="st7_chart-5-91" points="240.2,161.6 238.4,242.7 297.2,198.8 297.3,120.1 &#9;"/>
	<path class="st8_chart-5-91" d="M256.3,297v22.7c0,0,27.8-2.2,49.6-15.1s26.8-24.2,28.1-34.6c0.2-1.7,0.4-27.6,0.4-27.6"/>
	<path class="st9_chart-5-91" d="M238.4,242.4l58.8-43.9c0,0,34.9,11.9,37.1,43.9s-46.3,51.9-78,54.6L238.4,242.4z"/>
	<polygon class="st10_chart-5-91" points="239.1,212.3 138.7,213.3 138.9,163 240.2,161.6 &#9;"/>
	<path class="st11_chart-5-91" d="M258.1,255.2v65.6c0,0-40.6,6.9-82-12.1c-29.1-13.4-34.4-29.3-37.1-41.3v-69.4"/>
	<path class="st5_chart-5-91" d="M139,198.1h100.4l18.8,57.2c0,0-52.1,6.9-90.6-16.5C134.1,218.4,139,198.1,139,198.1z"/>
	<path class="st12_chart-5-91" d="M319.4,197.3c0.2-0.4,0-0.9-0.4-1.1c-0.3-0.1-0.5-0.1-0.8,0.1l0,0c-0.1-0.2-0.4-0.3-0.6-0.4&#10;&#9;&#9;c0-0.3-0.1-0.5-0.2-0.7c-0.1-0.6-0.9-1.1-1.3-0.5l-0.8,1l-0.2,0.1c-0.2-0.1-0.5,0-0.7,0.2c-0.1,0-0.2,0.1-0.2,0.1&#10;&#9;&#9;c-0.4,0.3-0.8,0.6-1.2,0.9c-0.3-0.1-0.6,0-0.7,0.2c-1.3,1.6-2.8,3.1-4.4,4.5c-1.3,1.1-3,1.9-3.5,3.5c-0.1,0.4,0.1,0.9,0.5,1&#10;&#9;&#9;c0,0,0,0,0,0c0.1,0,0.1,0,0.2,0c0.3,0,0.6-0.1,0.8-0.1l-0.9,1c-0.5,0.5-0.7,1.2-0.7,1.8c0,0.4,0.4,0.8,0.8,0.8c0.1,0,0.1,0,0.2,0&#10;&#9;&#9;c0.3-0.1,0.7-0.3,1-0.5c-0.1,0.2-0.2,0.3-0.2,0.5c-0.1,0.5,0.2,1.1,0.7,1.2c0,0,0,0,0,0c0.1,0,0.2,0,0.4,0c0.7-0.2,1.2-0.5,1.7-1.1&#10;&#9;&#9;c0.3,0.4,0.7,0.6,1.2,0.4c0.3,0,0.6-0.1,0.8-0.4l0.1-0.1c0.5-0.5,0.9-1.1,1.2-1.7l1.8-2.5c0.1-0.1,0.2-0.2,0.2-0.3&#10;&#9;&#9;c0.6-0.1,0.9,0.1,0.9,0.6c0,0.1,0,0.3,0,0.4v0.8c0,0.5,0,0.9,0.2,1.4c0.2,0.6,0.9,1.3,1.6,1.2s0.7-1,0.8-1.6&#10;&#9;&#9;c0.1-1.2,0.2-2.5,0.3-3.7c0.3-1.4,0.9-2.6,1.5-3.9c0.2-0.3,0.1-0.8-0.2-1l-0.1-0.1c0.1-0.2,0.1-0.3,0-0.5l0.5-0.5&#10;&#9;&#9;c0.3-0.3,0.3-0.8,0-1c0,0,0,0,0,0C319.6,197.3,319.5,197.3,319.4,197.3z"/>
	<path class="st4_chart-5-91" d="M308.2,202.9c-0.9,1.2-1.9,2.4-3,3.5c-0.2,0.2,0.1,0.6,0.4,0.4c1.1-1.2,2.2-2.4,3.1-3.7&#10;&#9;&#9;C308.9,202.9,308.5,202.6,308.2,202.9z"/>
	<path class="st4_chart-5-91" d="M309.6,204c-1.1,2-2.3,3.9-3.5,5.7c-0.2,0.3,0.3,0.5,0.5,0.3c1.2-1.9,2.4-3.8,3.5-5.7c0.1-0.1,0-0.3-0.1-0.4&#10;&#9;&#9;C309.9,203.8,309.7,203.9,309.6,204z"/>
	<path class="st4_chart-5-91" d="M311.6,205c-0.9,1.7-1.8,3.3-2.8,4.9c-0.2,0.3,0.3,0.6,0.5,0.3c1-1.6,1.9-3.2,2.8-4.9c0.1-0.1,0-0.3-0.1-0.4&#10;&#9;&#9;S311.7,204.9,311.6,205C311.6,205,311.6,205,311.6,205z"/>
	<path class="st4_chart-5-91" d="M396.4,242.1c0,0,1.6,2.2,0.6,3.7s-5.3,3.8-4.4,5.8s3.3,2.5,5.8,1.2s4.8-2.4,5.9-5s1-7.7,1-7.7&#10;&#9;&#9;s0.8,5.9,1.5,5.8c1-0.5,2-1,3-1.6c0.3-0.1-3.3-9.8-4.5-10.5s-9.2-2.4-9.2-2.4l-1.6,6.4L396.4,242.1z"/>
	<path class="st5_chart-5-91" d="M347.2,196.3c0,0.9,5.3,23.6,14.8,35.7s31.2,11.6,31.2,11.6s7.1-8.6,6.4-13.5c0,0-18-4.9-20.6-7.8&#10;&#9;&#9;s-6.6-30.1-14.9-33.9"/>
	<path class="st8_chart-5-91" d="M356.9,174.6l-14.3,20.2c4.9,8.1,21.9,5.7,22-3.1c0-1.3-0.1-2.6-0.4-3.9C361.8,183.4,359.4,179,356.9,174.6z"/>
	<path class="st12_chart-5-91" d="M331.8,208.4c0.4-0.2,0.9-0.1,1.1,0.3c0,0,0,0,0,0c0.1,0.2,0.1,0.4,0.1,0.6l0,0c0.2,0.4,0.7,0.7,1.2,0.6&#10;&#9;&#9;c0.6-0.1,1.2,0.6,0.8,1.2l-0.8,1l-0.1,0.2c0.1,0.2,0.1,0.5,0,0.7c0,0.1,0,0.2,0,0.3c-0.2,0.5-0.4,0.9-0.6,1.4&#10;&#9;&#9;c0.2,0.2,0.1,0.5-0.1,0.7c-1.3,1.6-2.4,3.4-3.4,5.3c-0.7,1.6-1.2,3.3-2.6,4.3c-0.4,0.2-0.9,0.1-1.1-0.3c0-0.1-0.1-0.2-0.1-0.2&#10;&#9;&#9;c-0.1-0.3-0.1-0.6-0.1-0.8l-0.8,1.1c-0.4,0.6-1,1-1.6,1.1c-0.4,0.1-0.9-0.2-0.9-0.6c0,0,0,0,0,0c0-0.1,0-0.1,0-0.2&#10;&#9;&#9;c0-0.4,0.1-0.7,0.2-1.1c-0.1,0.1-0.3,0.2-0.5,0.3c-0.5,0.2-1.1,0.1-1.3-0.4c-0.1-0.1-0.1-0.3-0.1-0.4c0-0.7,0.2-1.3,0.6-1.9&#10;&#9;&#9;c-0.4-0.2-0.7-0.6-0.7-1.1c-0.1-0.3,0-0.6,0.2-0.8l0.1-0.1c0.4-0.6,0.9-1.1,1.4-1.6l2.1-2.4c0-0.1,0.1-0.2,0.2-0.3&#10;&#9;&#9;c-0.1-0.6-0.3-0.8-0.8-0.8c-0.1,0-0.3,0-0.4,0c-0.3,0-0.5,0.1-0.8,0.2c-0.4,0.1-0.9,0.2-1.4,0.1c-0.6-0.1-1.5-0.5-1.5-1.3&#10;&#9;&#9;s0.9-1,1.4-1.2c1.2-0.4,2.4-0.8,3.5-1.1c1.2-0.6,2.4-1.4,3.4-2.4c0.3-0.3,0.7-0.3,1,0l0.1,0.1c0.1-0.1,0.3-0.1,0.5-0.1l0.3-0.6&#10;&#9;&#9;c0.2-0.4,0.6-0.5,1-0.3C331.6,208.2,331.7,208.3,331.8,208.4z"/>
	<path class="st4_chart-5-91" d="M328.9,220.6c-1,1.2-1.9,2.5-2.8,3.8c-0.1,0.1-0.2,0.2-0.3,0.1c0,0,0,0,0,0c-0.1-0.1-0.2-0.2-0.1-0.4&#10;&#9;&#9;c0,0,0,0,0,0c0.9-1.4,1.8-2.6,2.9-3.9C328.7,219.9,329.1,220.3,328.9,220.6z"/>
	<path class="st4_chart-5-91" d="M327.5,219.4c-1.7,1.5-3.3,3.1-4.8,4.7c-0.2,0.2-0.6-0.1-0.4-0.4c1.6-1.6,3.2-3.2,4.8-4.7&#10;&#9;&#9;C327.4,218.8,327.8,219.2,327.5,219.4z"/>
	<path class="st4_chart-5-91" d="M326,217.8c-1.4,1.2-2.8,2.5-4.1,3.8c-0.2,0.2-0.6-0.1-0.4-0.4c1.3-1.3,2.7-2.6,4.1-3.8&#10;&#9;&#9;C325.9,217.2,326.3,217.6,326,217.8z"/>
	<path class="st8_chart-5-91" d="M337.3,168.5c0,0-0.7,1.4-1.2,1.6c-1.6,0.6-9.9,5.4-17.5,16.7c-9.1,13.6-8,11.9-8,11.9s6.5-0.5,8.7,5.6&#10;&#9;&#9;c0,0,12.8-18.2,13.2-18.6c0.7-0.7,4.6,5,4.6,5l-10.6,18c0,0,6.1,6.5,11.4,5.8c0,0,19.3-28.4,20.4-37.1S339.8,159,337.3,168.5z"/>
	<path class="st4_chart-5-91" d="M353.9,182.5c-3.1,11.6-8.7,22.3-16.4,31.5c-0.4,0.5,0.4,1.1,0.9,0.6c7.7-9.3,13.4-20.1,16.5-31.8&#10;&#9;&#9;c0.1-0.3,0-0.5-0.3-0.6C354.3,182.1,354,182.2,353.9,182.5L353.9,182.5z"/>
	<path class="st4_chart-5-91" d="M340,185.4c-0.8,1.5-1.5,2.9-2.4,4.4c-1.5-1.5-3-3.1-4.4-4.8c-0.4-0.5-1.2,0.2-0.7,0.7c1.4,1.8,2.9,3.4,4.6,5&#10;&#9;&#9;c-3.3,5.8-6.8,11.5-10.7,17c-0.4,0.6,0.5,1.1,0.9,0.5c5-7.2,9.5-14.6,13.5-22.4C341.3,185.3,340.4,184.8,340,185.4z"/>
	<path class="st12_chart-5-91" d="M333.5,165.7c-0.2,0.7,2.1,13.6,8.6,10.4s2.7-13.4,0.7-14.4S334.6,161.6,333.5,165.7z"/>
	<path class="st4_chart-5-91" d="M368.7,175.3c-0.3-2.1-1.6-4-3.5-4.9c-0.9-0.5-1.9-0.8-2.9-1.1c-1.4-0.4-1.9-0.8-2.1-2.3&#10;&#9;&#9;c-0.3-2.4-1.9-4.4-4.2-5.2c-1.3-0.3-2.6-0.4-3.9-0.1c-1.4,0.2-2.9,0.7-4.2-0.2c-0.1-0.1-0.2-0.1-0.3-0.2c-1.6-1.5-4.3-3.3-9.4-2.3&#10;&#9;&#9;c-7,1.4-8,6.4-7,9.4c0.6,1.7,2.1,3,3.8,3.3c0,0-1.2-4.3-1.5-6c0.2,0.6,0.9,1.2,3,1.2c3.4-0.2,8.2-1.2,8,2.5&#10;&#9;&#9;c-0.1,1.4-0.3,2.5-0.4,3.5c-0.3,1.4,0,2.9,0.8,4.1c1.3,1.8,3.7,2.4,5.6,1.3c2-0.9,4.3-3.2,6.2-0.7c1.3,1.7,2.2,3.3,4.4,4&#10;&#9;&#9;c3.2,0.9,6.6-0.9,7.5-4.1c0,0,0,0,0,0C368.7,177,368.8,176.1,368.7,175.3z"/>
</g>
<g id="Rounded_Bar_Chart_chart-5-91">
	<path class="st6_chart-5-91 targetColor" d="M51.8,251.8v32c0,3.2,5.7,5.8,12.8,5.8s12.8-2.5,12.8-5.8v-32H51.8z" style="fill: rgb(104, 225, 253);"/>
	<path class="st7_chart-5-91" d="M51.8,251.8v32c0,3.2,5.7,5.8,12.8,5.8s12.8-2.5,12.8-5.8v-32H51.8z"/>
	<ellipse class="st6_chart-5-91 targetColor" cx="64.5" cy="251.8" rx="12.8" ry="5.8" style="fill: rgb(104, 225, 253);"/>
	<ellipse class="st11_chart-5-91" cx="83.6" cy="295.4" rx="12.8" ry="5.8"/>
	<polyline class="st11_chart-5-91" points="70.8,295.4 70.8,272.4 96.4,272.4 96.4,295.4 87,298.5 &#9;"/>
	<ellipse class="st5_chart-5-91" cx="83.6" cy="272.4" rx="12.8" ry="5.8"/>
	<ellipse class="st8_chart-5-91" cx="106.1" cy="304.2" rx="12.8" ry="5.8"/>
	<polyline class="st8_chart-5-91" points="93.3,304.2 93.3,290.5 118.9,290.5 118.9,304.2 109.5,307.3 &#9;"/>
	<ellipse class="st9_chart-5-91" cx="106.1" cy="291" rx="12.8" ry="5.8"/>
</g>
</svg>