<svg version="1.1" id="Layer_1" xmlns="http://www.w3.org/2000/svg" xmlns:xlink="http://www.w3.org/1999/xlink" x="0px" y="0px" viewBox="0 0 500 500" style="width: 189px;" xml:space="preserve" data-imageid="cybersecurity-95" imageName="Cybersecurity" class="illustrations_image">
<style type="text/css">
	.st0_cybersecurity-95{fill:#68E1FD;}
	.st1_cybersecurity-95{opacity:0.62;fill:url(#SVGID_1_);enable-background:new    ;}
	.st2_cybersecurity-95{opacity:0.62;fill:url(#SVGID_00000027588938040584856290000006631031239802901639_);enable-background:new    ;}
	.st3_cybersecurity-95{fill:#2C2CB5;}
	.st4_cybersecurity-95{fill:#5F5CEA;}
	.st5_cybersecurity-95{fill:#E2F2EE;}
	.st6_cybersecurity-95{fill:#467EC1;}
	.st7_cybersecurity-95{fill:#F8951D;}
	.st8_cybersecurity-95{fill:#393B5B;}
	.st9_cybersecurity-95{fill:#3D65AF;}
	.st10_cybersecurity-95{opacity:0.37;fill:#393B5B;enable-background:new    ;}
	.st11_cybersecurity-95{fill:#D9E021;}
</style>
<g id="Base_cybersecurity-95">
	<path class="st0_cybersecurity-95 targetColor" d="M65.6,346.2l178.6,103.1c7,4,15.7,4,22.7,0l187.2-107.8c4.5-2.7,6.1-8.5,3.4-13.1c-0.8-1.4-1.9-2.5-3.3-3.4&#10;&#9;&#9;L270.2,214.3c-3-1.9-6.8-1.9-9.8,0L65.8,329.6c-4.5,2.6-6,8.4-3.4,12.9c0,0.1,0.1,0.1,0.1,0.2C63.2,344.2,64.2,345.4,65.6,346.2z" style="fill: rgb(0, 148, 255);"/>
</g>
<g id="Shadow_cybersecurity-95">
	
		<linearGradient id="SVGID_1_-cybersecurity-95" gradientUnits="userSpaceOnUse" x1="211.9872" y1="1836.7074" x2="360.2372" y2="1691.4674" gradientTransform="matrix(1 0 0 1 0 -1443.47)">
		<stop offset="0" style="stop-color:#000000;stop-opacity:0"/>
		<stop offset="1" style="stop-color:#000000"/>
	</linearGradient>
	<path class="st1_cybersecurity-95" d="M216.2,343.7l-81.3,42.2c0,0,49.5,32.1,81.8,47.2l100-59.5"/>
	
		<linearGradient id="SVGID_00000137105316838804979450000001523921904447533976_-cybersecurity-95" gradientUnits="userSpaceOnUse" x1="119.0001" y1="-611.1502" x2="243.4801" y2="-520.6602" gradientTransform="matrix(1 0 0 -1 0 -276)">
		<stop offset="0" style="stop-color:#000000;stop-opacity:0"/>
		<stop offset="1" style="stop-color:#000000"/>
	</linearGradient>
	<path style="opacity:0.62;fill:url(#SVGID_00000137105316838804979450000001523921904447533976_);enable-background:new    ;" d="&#10;&#9;&#9;M153.6,299l-58.7,38.1c0,0-12.5-1.9,19.9,13.2l64-41.7"/>
</g>
<g id="Tablet_cybersecurity-95">
	<path class="st3_cybersecurity-95" d="M364.3,102L249.4,36.7c-2.3-1.2-5-1.2-7.3,0l0,0l-7.8,4l3.9,1.3c0,0.5-0.2,0.8-0.2,1.2L235.8,274&#10;&#9;&#9;c-0.1,6.6,3.4,12.7,9.2,15.9l115.4,65.2c0.2,0.2,0.5,0.3,0.8,0.3l-1.4,3.6l7.2-3.4c0.5-0.2,1-0.5,1.4-0.8l0,0&#10;&#9;&#9;c2.1-1.4,3.4-3.7,3.4-6.2V114.8C371.8,109.5,368.9,104.6,364.3,102z"/>
	<path class="st4_cybersecurity-95" d="M237.7,293.5l115.4,65.2c3.6,2,8.2,0.8,10.3-2.8c0.6-1.2,0.9-2.4,0.9-3.7V118.3c0-5.3-2.8-10.2-7.5-12.8&#10;&#9;&#9;L241.9,40.3c-3.6-2-8.2-0.8-10.3,2.8c-0.6,1.1-0.9,2.3-0.9,3.6l-2.2,230.8C228.4,284.1,231.9,290.3,237.7,293.5z"/>
	<polygon class="st5_cybersecurity-95" points="236.6,279.7 355.1,346.6 355.1,124.3 238.6,58.2 &#9;"/>
</g>
<g id="Folder_cybersecurity-95">
	<polygon class="st6_cybersecurity-95" points="65.5,249.9 72.5,253.4 76.7,249.5 82.6,242.8 71.1,240.4 &#9;"/>
	<path class="st3_cybersecurity-95" d="M159.2,93.9l-39.1,18.5l-5.6,17l-57.6,31.3c-1.8,0.9-2.8,2.8-2.5,4.8l10.9,84.4L172,187.6l-6.4-71.9&#10;&#9;&#9;c-0.1-3-1.6-13.7-2.5-19.5c-0.3-1.6-1.7-2.7-3.3-2.5C159.6,93.7,159.4,93.8,159.2,93.9z"/>
	<path class="st0_cybersecurity-95 targetColor" d="M175.4,100.9l-42.4,22l-5.6,14l-52.3,29.9c-1.6,0.9-2.6,2.7-2.6,4.5v82.1l106.7-62.3v-85.2l-0.1-2.8&#10;&#9;&#9;c-0.1-1.4-1.2-2.4-2.6-2.3c0,0,0,0-0.1,0C176,100.7,175.7,100.8,175.4,100.9z" style="fill: rgb(0, 148, 255);"/>
</g>
<g id="Character_cybersecurity-95">
	<polygon class="st0_cybersecurity-95 targetColor" points="323.3,220.8 323.3,269.2 343.7,282 343.7,232.9 &#9;" style="fill: rgb(0, 148, 255);"/>
	<polygon class="st4_cybersecurity-95" points="324.9,231.9 324.9,241.5 329.2,244.3 329.2,234.7 &#9;"/>
	<polygon class="st4_cybersecurity-95" points="331.1,235.3 331.1,244.9 335.5,247.7 335.5,238.1 &#9;"/>
	<polygon class="st4_cybersecurity-95" points="337.4,238.9 337.4,248.5 341.7,251.5 341.7,241.7 &#9;"/>
	<polygon class="st4_cybersecurity-95" points="324.9,244.3 324.9,254.1 329.2,256.9 329.2,247.3 &#9;"/>
	<polygon class="st4_cybersecurity-95" points="331.1,247.7 331.1,257.5 335.5,260.4 335.5,250.5 &#9;"/>
	<polygon class="st4_cybersecurity-95" points="337.4,251.5 337.4,261.1 341.7,264.1 341.7,254.3 &#9;"/>
	<polygon class="st4_cybersecurity-95" points="324.9,256.9 324.9,266.6 329.2,269.5 329.2,259.7 &#9;"/>
	<polygon class="st4_cybersecurity-95" points="331.1,260.4 331.1,270 335.5,273 335.5,263.2 &#9;"/>
	<polygon class="st4_cybersecurity-95" points="337.4,263.9 337.4,273.6 341.7,276.5 341.7,266.7 &#9;"/>
	<path class="st7_cybersecurity-95" d="M300.6,253.4c5,3.1,8.2,8.4,8.4,14.3v0.6c-0.1,4.4-2.7,8.3-6.7,10.1c-2.4,0.8-5,0.9-7.5,0.1&#10;&#9;&#9;c-5.8-1.5-12.9-5.5-15.6-11c-1.4-2.9-1.5-6.3-0.3-9.3c1.7-4.7,6.7-7.2,11.5-7.5C294.1,250.4,297.6,251.3,300.6,253.4z"/>
	<path class="st8_cybersecurity-95" d="M306.5,259.3l-2.6,1.1c-2-0.5-3.6-1.9-4.4-3.7c-0.3-0.6-1.2-0.3-0.9,0.3c0.7,1.8,2.1,3.2,3.9,4l-0.9,0.3&#10;&#9;&#9;c-2.8,0.9-6.2,2.2-9.2,1.6c-1.9-0.2-3.3-1.9-3.1-3.9c0,0,0,0,0,0c0-0.3,0.1-0.6,0.3-0.9c1.1-2.3,4.2-3.4,6.5-4.4l3.3-0.9&#10;&#9;&#9;c-2.7-1.5-5.8-2.2-8.9-2c-4.8,0.3-9.6,3-11.5,7.5c-1.1,3-1,6.4,0.3,9.3c2.6,5.6,9.8,9.3,15.6,11c2.4,0.8,5.1,0.8,7.5-0.1&#10;&#9;&#9;c3.9-1.9,6.5-5.8,6.7-10.1v-0.6C309,264.7,308.2,261.8,306.5,259.3z"/>
	<path class="st8_cybersecurity-95" d="M284.6,270.8c-0.5-0.3-32.5,0.5-37.5,69.4l-18.7-10.8c-7.1,3.2-11.4,10.6-10.6,18.4&#10;&#9;&#9;c0.9,13.7,43.1,36.4,61.2,30.4s10.1-49.4,10.1-49.4l10.6-24.8"/>
	<path class="st8_cybersecurity-95" d="M283,361.6c0,0,19.3,6.5,22.3,2.6s17-34.6,8.7-44.5s-25.9,0-31.6,4.7"/>
	<path class="st8_cybersecurity-95" d="M302.9,365.1c2.3-0.9,12.8,3.1,14.5,2.2s2.2,11.7-10.4,8.7c-7.8-1.9-15.3-4.8-22.4-8.6c0,0,3.3-9.3,8.3-10"/>
	<path class="st7_cybersecurity-95" d="M336.3,259.3l-0.6,0.8v-0.6c0.4-0.8,1-1.5,1.6-2.2c0.7-0.8,0.6-2.1-0.2-2.8c-0.2-0.2-0.3-0.2-0.5-0.3l0.2-0.2&#10;&#9;&#9;c0.7-0.7,0.7-1.9,0-2.6s-1.9-0.7-2.6,0l-1.4,1.2c-0.8-0.7-2-0.8-2.8-0.2c-0.9,0.8-2.2,1.4-2.6,2.6c-0.3,1.4-0.3,2.9-0.2,4.4v3.3&#10;&#9;&#9;c-0.3-0.6-0.6-1.2-1.1-1.7c-1.2-2-4.5-0.2-3.3,1.9c1,1.6,1.8,3.3,2.5,5l0.1,0.5c-0.2,1.2-0.4,2.3-0.8,3.4c-0.2,1.2-0.4,2.4-0.8,3.6&#10;&#9;&#9;c-0.7,0.5-0.9,1.5-0.4,2.2c0,0.1,0.1,0.1,0.1,0.2c0.5,0.9,1.5,1.3,2.4,0.8c0,0,0,0,0,0c0.2,0,0.2-0.2,0.3-0.2&#10;&#9;&#9;c0.7,0.6,1.8,0.5,2.5-0.1c0.4,0.2,0.8,0.2,1.2,0c0.5,0.8,1.6,1.1,2.5,0.6c1.7-0.9,2.2-3.6,2.5-5.3c0.6-2.3,0.9-4.8,0.8-7.2v-0.1&#10;&#9;&#9;c0.9-1.5,1.9-2.8,3.1-4C340.6,260.2,338,257.4,336.3,259.3z"/>
	<path class="st8_cybersecurity-95" d="M328.6,259.7l0.6,0.2c0-0.8,0-1.6,0.2-2.3c0.3-1.9,2-3.4,3.4-4.8c0.1-0.1,0.2-0.3,0-0.4c0,0,0,0,0,0&#10;&#9;&#9;c-0.1-0.1-0.3-0.2-0.4-0.1c0,0,0,0-0.1,0.1c-1.4,1.3-2.6,2.8-3.4,4.5C328.6,257.7,328.5,258.8,328.6,259.7L328.6,259.7z"/>
	<path class="st8_cybersecurity-95" d="M336.1,253.5c-0.9,1.6-2.5,2.6-3.4,4.2c-0.6,1-0.9,2.1-0.9,3.3c0.1,0.1,0.5,0.3,0.6,0.5c0.1-1.5,0.6-2.9,1.6-4&#10;&#9;&#9;c0.9-1.1,2-2.3,2.8-3.4C336.9,253.5,336.4,253.2,336.1,253.5z"/>
	<path class="st8_cybersecurity-95" d="M335,260c-0.5,0.9-0.8,1.9-1.2,3l0.3,0.3c0.1,0.1,0.2,0.3,0.2,0.5c0.5-1.2,0.9-2.3,1.4-3.4&#10;&#9;&#9;C336,260,335.3,259.7,335,260z"/>
	<path class="st8_cybersecurity-95" d="M302.5,278.4c-0.4,2.7,0.8,5.5,3.1,7c3.7,2.3,19.8-16.2,19.8-16.2s7.3-0.6,8.9,8.4s-22.3,31-34.7,32.5&#10;&#9;&#9;s-21.3-11.8-21.3-11.8s1.7-25.9,9.2-27.6"/>
	<path class="st8_cybersecurity-95" d="M206.7,355.5c2.1,0.8,4.3,1.3,6.5,1.4c1.8,0,3.2-1.3,3.3-3.1c0-0.1,0-0.1,0-0.2c0-0.6-0.1-1.1-0.5-1.6l0,0&#10;&#9;&#9;c-0.5-2,0.2-4.2,1.7-5.6c1.1-0.8,3.7,0.3,5.6,1.2c1.1,0.5,2.4,0.4,3.4-0.3l5-3.7c1.4-1.1,1.7-3.1,0.6-4.5c0,0,0,0,0,0&#10;&#9;&#9;c-0.3-0.3-0.7-0.7-1.1-0.9c-5.9-3.3-16.2-8.7-18.1-7.8c-2.5,1.6-10.3,15.3-10.3,18.8c0.1,2.1,1,4,2.5,5.5&#10;&#9;&#9;C205.8,355.1,206.2,355.3,206.7,355.5z"/>
	<path class="st8_cybersecurity-95" d="M303.2,256.5c-0.3-0.3-0.8-0.5-1.2-0.5c-0.2,0-0.3,0-0.5,0.1v0.6c0.2,0.4,0.5,0.7,0.9,0.9&#10;&#9;&#9;c0.3,0.3,0.8,0.1,1.1-0.2S303.6,256.8,303.2,256.5z"/>
	<path class="st8_cybersecurity-95" d="M297.3,259.1c-0.3-0.3-0.7-0.6-1.1-0.8c-0.3,0-0.6,0.2-0.6,0.5v0.3l0,0c0,0.5,0.2,0.9,0.5,1.2&#10;&#9;&#9;c0.4,0.3,0.9,0.3,1.2,0C297.6,260,297.6,259.5,297.3,259.1z"/>
</g>
<g id="Key_cybersecurity-95">
	<path class="st9_cybersecurity-95" d="M304,218.2c0,0,10.4-6.7,10.4-6.9s-6.9-5.4-6.9-5.4l-4,7.6"/>
	<polyline class="st9_cybersecurity-95" points="263.7,136.7 272.9,130.6 275.2,142.9 265.9,141.1 &#9;"/>
	<path class="st3_cybersecurity-95" d="M276.5,130.3c-1.6-0.9-3.6-0.3-4.5,1.2c-0.3,0.5-0.5,1-0.5,1.6l-1.1,52.3c0,1.6,0.9,3.2,2.3,4l36.8,22&#10;&#9;&#9;c2.1,1.3,5,0.7,6.3-1.5c0.5-0.8,0.7-1.7,0.7-2.6v-51.2c0-1.7-1-3.3-2.5-4.1L276.5,130.3z"/>
	<path class="st4_cybersecurity-95" d="M266.7,136.9c-1.6-0.9-3.6-0.3-4.5,1.2c-0.3,0.5-0.5,1-0.5,1.6l-1.1,52.3c0,1.6,0.9,3.2,2.3,4l36.8,22&#10;&#9;&#9;c2.1,1.3,5,0.7,6.3-1.5c0.5-0.8,0.7-1.7,0.7-2.6v-51.2c0-1.7-1-3.3-2.5-4.1L266.7,136.9z"/>
	
		<ellipse transform="matrix(0.9968 -7.950302e-02 7.950302e-02 0.9968 -12.4901 22.9575)" class="st0_cybersecurity-95 targetColor" cx="282.1" cy="168.3" rx="7.9" ry="12.6" style="fill: rgb(0, 148, 255);"/>
	<path class="st0_cybersecurity-95 targetColor" d="M280.2,170.2h1.6c1.2,0,2.2,0.9,2.2,2.1c0,0,0,0.1,0,0.1v20.4c0,1.2-0.9,2.1-2.1,2.2c0,0-0.1,0-0.1,0h-1.6&#10;&#9;&#9;c-1.2,0-2.2-0.9-2.2-2.1c0,0,0-0.1,0-0.1v-20.4C278,171.2,278.9,170.2,280.2,170.2C280.1,170.2,280.2,170.2,280.2,170.2z" style="fill: rgb(0, 148, 255);"/>
	<ellipse class="st0_cybersecurity-95 targetColor" cx="302.3" cy="151.5" rx="3.7" ry="2.3" style="fill: rgb(0, 148, 255);"/>
	<path class="st0_cybersecurity-95 targetColor" d="M291,111c-17.8-4.4-17.6,16.3-17.6,16.3v7.3c-0.1,1.1,0,2.2,0.3,3.3c0.8,0.9,2,1.4,3.3,1.2&#10;&#9;&#9;c1.1,0,2.6-0.2,3.1-1.1c0.3-0.9,0.4-1.9,0.3-2.8c-0.2-1.7-0.2-3.4-0.2-5.1c0.2-3.7,0.5-8.3,2.8-11.2c1.6-2,4.3-2.7,6.7-1.7&#10;&#9;&#9;c9.2,3.1,8.9,14,8.9,14v20.2h7.6v-20.8C306.3,130.6,304.8,114.3,291,111z" style="fill: rgb(0, 148, 255);"/>
</g>
<g id="Plant_cybersecurity-95">
	<path class="st0_cybersecurity-95 targetColor" d="M144.7,292.4c0,0,2.8,17,20.1,18.5c23,2,24.1-18.5,24.1-18.5" style="fill: rgb(0, 148, 255);"/>
	<path class="st10_cybersecurity-95" d="M158.7,292.7h-14c0,0,2.5,15.4,17.8,18.2C158.1,306,156.6,299,158.7,292.7z"/>
	<ellipse class="st8_cybersecurity-95" cx="166.8" cy="292.4" rx="22.1" ry="6.5"/>
	<path class="st11_cybersecurity-95" d="M188,278.1c-4.1-1.2-8.9,0.5-12.3,2.6c-1.1,0.7-2.2,1.6-3.1,2.5c-0.4,0.2-0.8,0.4-1.2,0.6&#10;&#9;&#9;c1.9-5.3,3-10.8,0.3-16.2c-1.4-2.8-5.4-7.2-8.7-4.2c-1.3,1.4-1.9,3.2-1.7,5c0,2.3,0.3,4.5,0.9,6.7c0.6,2.5,1.4,5,2,7.5&#10;&#9;&#9;c0.2,0.5,0.2,0.9,0.3,1.4c-2-2-4.1-4-6.4-5.8l-1.4-0.9c-2.2-2.2-5.1-3.7-8.2-4c-1.9-0.4-3.9,0-5.6,1.1c-1.6,1.3-2.2,3.4-1.6,5.3&#10;&#9;&#9;c0.9,4.4,5,7.8,8.7,10c4.1,2.5,8.8,3.9,13.6,4c0.3,0.2,0.6,0.3,0.9,0.3c5,0.2,10-0.3,14.9-1.4c4.1-0.9,9.2-2.2,12-5.6&#10;&#9;&#9;S192.1,279.2,188,278.1z"/>
	<path class="st8_cybersecurity-95" d="M184.6,282.5c-4.4,4.4-10.1,6.4-15.4,9.2c0.2-8.6-0.5-17.1-2-25.5c-0.1-0.9-1.7-0.6-1.6,0.5&#10;&#9;&#9;c1.5,8.3,2.2,16.8,2,25.2c-7.2-4.8-14.2-9.8-21-15c-0.8-0.6-1.6,0.8-0.8,1.4c6.9,5.1,13.9,10,20.9,14.8l-0.9,0.6&#10;&#9;&#9;c-0.8,0.6,0,1.9,0.8,1.4l0.9-0.6v0.5c0,0.4,0.4,0.8,0.8,0.8c0.4,0,0.8-0.3,0.8-0.8v-0.1l0.6,0.3c0.8,0.6,1.6-0.8,0.8-1.4l-0.8-0.5&#10;&#9;&#9;c5.6-3,11.5-5.1,16-9.6C186.5,282.9,185.4,281.8,184.6,282.5z"/>
</g>
</svg>