<svg id="_0190_seo" data-name="0190_seo" xmlns="http://www.w3.org/2000/svg" xmlns:xlink="http://www.w3.org/1999/xlink" viewBox="0 0 500 500" data-imageid="seo-87" imageName="SEO" class="illustrations_image" style="width: 189px;"><defs><style>.cls-1_seo-87{fill:#f8997c;}.cls-2_seo-87{fill:#a1c3fc;}.cls-14_seo-87,.cls-3_seo-87{fill:#f2f2f2;}.cls-4_seo-87{fill:#68e1fd;}.cls-5_seo-87,.cls-8_seo-87{fill:#053855;}.cls-5_seo-87{opacity:0.1;}.cls-11_seo-87,.cls-6_seo-87,.cls-7_seo-87{opacity:0.32;}.cls-6_seo-87{fill:url(#linear-gradient);}.cls-7_seo-87{fill:url(#linear-gradient-2-seo-87);}.cls-9_seo-87{fill:#cee831;}.cls-10_seo-87{fill:#dd654a;}.cls-11_seo-87{fill:url(#linear-gradient-3-seo-87);}.cls-12_seo-87{fill:#b3b3b3;}.cls-13_seo-87{fill:#ffe0ce;}.cls-14_seo-87{opacity:0.6;}.cls-15_seo-87{fill:#ffa513;}.cls-16_seo-87{opacity:0.25;}</style><linearGradient id="linear-gradient-seo-87" x1="296.74" y1="336.73" x2="329.91" y2="279.02" gradientUnits="userSpaceOnUse"><stop offset="0" stop-color="#053855" stop-opacity="0"/><stop offset="0.99" stop-color="#053855"/></linearGradient><linearGradient id="linear-gradient-2-seo-87" x1="167.55" y1="355.59" x2="181.98" y2="330.49" xlink:href="#linear-gradient-seo-87"/><linearGradient id="linear-gradient-3-seo-87" x1="292.65" y1="284.89" x2="314.11" y2="259.24" gradientUnits="userSpaceOnUse"><stop offset="0" stop-color="#053855" stop-opacity="0"/><stop offset="0.99" stop-color="#053855"/></linearGradient></defs><path id="Base_seo-87" class="cls-1_seo-87" d="M257,452.29,465.3,335.35a10,10,0,0,0,.37-17.14l-202-125.14a10,10,0,0,0-10.24-.15L33.06,320.83a10,10,0,0,0,0,17.23l196.52,114A27.61,27.61,0,0,0,257,452.29Z"/><g id="Laptop_Machine_seo-87" data-name="Laptop Machine"><polyline class="cls-2_seo-87" points="415.91 315.08 415.91 320.94 412.95 324.58"/><path class="cls-2_seo-87" d="M297.92,243.58l114.63,71a7.1,7.1,0,0,1-.24,12.22l-174,98.4a15.92,15.92,0,0,1-15.91-.13L108.32,358c-8.29-6.81-7.67-19.63.08-20.17l172.94-94.55A16.17,16.17,0,0,1,297.92,243.58Z"/><path class="cls-3_seo-87" d="M297.92,238.69l114.63,71.05a7.1,7.1,0,0,1-.24,12.22l-174,98.4a15.9,15.9,0,0,1-15.91-.14L108.32,353.14a8.84,8.84,0,0,1,.08-15.28l172.94-99.45A16.17,16.17,0,0,1,297.92,238.69Z"/><path class="cls-4_seo-87 targetColor" d="M305,255l41.91,26.11a5.06,5.06,0,0,1-.17,8.69L196.26,375.53a14.81,14.81,0,0,1-14.78-.07c-9.68-5.63-26.33-15.79-36.52-22a6.15,6.15,0,0,1,.12-10.56c30.43-17.69,129.7-75.42,151.43-88A8.19,8.19,0,0,1,305,255Z" style="fill: rgb(0, 148, 255);"/><path class="cls-4_seo-87 targetColor" d="M302.71,325.84,250.15,355.4a5.25,5.25,0,0,0-.08,9.11L281,382.59a7,7,0,0,0,7,0L341.74,352a4.39,4.39,0,0,0,0-7.62L309.6,325.88A7,7,0,0,0,302.71,325.84Z" style="fill: rgb(0, 148, 255);"/><path class="cls-5_seo-87" d="M305,255l41.91,26.11a5.06,5.06,0,0,1-.17,8.69L196.26,375.53a14.81,14.81,0,0,1-14.78-.07c-9.68-5.63-26.33-15.79-36.52-22a6.15,6.15,0,0,1,.12-10.56c30.43-17.69,129.7-75.42,151.43-88A8.19,8.19,0,0,1,305,255Z"/><path class="cls-5_seo-87" d="M302.71,325.84,250.15,355.4a5.25,5.25,0,0,0-.08,9.11L281,382.59a7,7,0,0,0,7,0L341.74,352a4.39,4.39,0,0,0,0-7.62L309.6,325.88A7,7,0,0,0,302.71,325.84Z"/></g><g id="Shadow_seo-87"><polyline class="cls-6_seo-87" points="387.81 313.6 308.23 362.13 230.91 315.97 306.51 269.42"/><polyline class="cls-7_seo-87" points="197.78 340.14 164.71 362.13 148.09 352.3 181.41 332.94"/></g><g id="Character_1_seo-87" data-name="Character #1"><polyline class="cls-8_seo-87" points="356.77 288.48 356.77 324.48 359.43 324.48 360.01 287.55"/><polyline class="cls-8_seo-87" points="371.92 274.63 377.26 313.77 374.59 313.77 369.01 276.08"/><path class="cls-8_seo-87" d="M318.11,302s-2.49,8.14-3,9-8.69,6.21-8.56,7.87,3.21,2.34,5.13,2.2,12.95-4.74,13.64-6.09S326,302,326,302Z"/><path class="cls-8_seo-87" d="M331.19,311.53s-2.48,8.14-3,9-8.7,6.21-8.56,7.87,3.21,2.34,5.13,2.2,12.95-4.74,13.64-6.09.69-13,.69-13Z"/><path class="cls-8_seo-87" d="M373.37,237.42c-.71,2-4.7,32-4.7,32l-4-1.34,5.23-30.82"/><polyline class="cls-2_seo-87" points="371.92 274.63 372 269.8 367.71 271.26 369.01 276.08"/><path class="cls-8_seo-87" d="M362.25,267.14s10.74,4.13,9.67,8.19-9.66,14-15.15,13.15-12.21-5.64-12.21-5.64"/><path class="cls-2_seo-87" d="M362.25,262.2s10.74,4.13,9.67,8.19-9.66,14-15.15,13.15-12.21-5.64-12.21-5.64"/><path class="cls-2_seo-87" d="M366.5,224.51s10.38,2.59,11.44,8.57,1.35,17-13.39,12.72-7.78-15.36-7.78-15.36"/><path class="cls-8_seo-87" d="M352.64,237.26s3.67,15.41.95,23.65-18.17,14.86-18.17,14.86l-6.52,33.16c-8.65,2.72-16.08-1.9-16.08-1.9s1.8-29.27,4.54-36.7,24-22,24-22"/><path class="cls-8_seo-87" d="M353.27,256.85s-21.26,14.59-24,22-4.54,36.69-4.54,36.69,7.43,4.62,16.08,1.91l6.52-33.16s11.05-3.16,13.77-11.41,1.59-20.78,1.59-20.78"/><path class="cls-9_seo-87" d="M361.71,257.16c3.63-8.82,5.2-31.74,3-34.51-4.65-5.72-14.47-5-14.47-5s-5.7-3.41-10.47.62c-3.55,3-1,21.46,0,33.19C345.93,257.17,352.8,258.77,361.71,257.16Z"/><path class="cls-8_seo-87" d="M346.48,259.8c-3.83,3.82-7.92,7.5-11.49,11.57-3.09,3.53-4.3,8-5.5,12.47-2.8,10.35-4.05,21-5.29,31.67-.07.64.94.64,1,0,1.2-10.23,2.4-20.5,5-30.48,1.28-4.9,2.56-9.77,6.06-13.57s7.28-7.32,10.92-10.95A.5.5,0,0,0,346.48,259.8Z"/><path class="cls-10_seo-87" d="M388.44,285.1l2-1.09-90.73-52-59,33.48.79.46v44.18a.44.44,0,0,0,.88,0V266.5l87.29,51,.21-.12v31.81a.44.44,0,0,0,.88,0V316.89l57.09-31.45V313.6a.44.44,0,0,0,.88,0V285.48A.39.39,0,0,0,388.44,285.1Z"/><path class="cls-10_seo-87" d="M388.44,285.1l2-1.09-90.73-52-59,33.48.79.46v44.18a.44.44,0,0,0,.88,0V266.5l87.29,51,.21-.12v31.81a.44.44,0,0,0,.88,0V316.89l57.09-31.45V313.6a.44.44,0,0,0,.88,0V285.48A.39.39,0,0,0,388.44,285.1Z"/><path class="cls-11_seo-87" d="M297.41,263.88,268.9,279.76c4.77,3,23.94,13.32,28.54,16.57l29.46-18.86-4.85-11.79Z"/><polyline class="cls-12_seo-87" points="320.95 280.94 341.71 268.84 314.66 253.3 293.45 264.21"/><path class="cls-3_seo-87" d="M315.58,257.08S321,281.24,321,280.94s-26.88-14.7-27.06-15.22-7.09-25-7.09-25Z"/><polygon class="cls-13_seo-87" points="307.74 252.62 313.33 249.25 319.99 254.8 314.98 256.9 307.74 252.62"/><path class="cls-9_seo-87" d="M310.83,248.79s7.4,2.61,6.78,9.46c0,0,11.54-4.81,14.11-7.86s8-9.69,8-9.69V218.25s-14,21.68-17,24.3C320.32,244.64,310.83,248.79,310.83,248.79Z"/><path class="cls-1_seo-87" d="M349,214.56c0,1.89.05,3.77,0,5.66.34.86.82,1.46,1.5,1.39,2.25-.24,4.93-3.61,4.93-3.61l.4-5.25Z"/><path class="cls-8_seo-87" d="M360,201.52c-1.4-3-4.17-3.6-7-3a6.54,6.54,0,0,0-2.16-1,6.8,6.8,0,0,0-6.84,2.21,4.64,4.64,0,0,0-2.29.3c-2.16.91-2.41,3.2-1.91,5.21,0,.08.05.15.07.23.23,3.56,3.69,5,3.69,5L354.68,216a8.06,8.06,0,0,0,3-2.79,4.18,4.18,0,0,0,.46-1.46,2.39,2.39,0,0,0,.22-.23C360.5,208.81,361.53,204.84,360,201.52Z"/><path class="cls-13_seo-87" d="M343.25,207.65c.28,1.19,2.29,12.49,7.39,11.55s5.42-8.48,5.42-8.48-4.62-1.25-5-3-.19-2.49-2.45-3S342.78,205.67,343.25,207.65Z"/><polygon class="cls-8_seo-87" points="338.8 241.82 338.07 230.78 334.74 246.76 338.8 241.82"/><path class="cls-13_seo-87" d="M339.18,260.65a3.75,3.75,0,0,0-1.27.38c-1.22.59-2.55,1-3.75,1.61a12.43,12.43,0,0,0-4.69,4.93c-.25.53-1.28,2.46-.74,3s1.74,0,1.74,0-.07,1.11.32,1.37,1.55-.65,1.55-.65.53,1.36,1.26,1a9.17,9.17,0,0,0,2-2.27s-.14,1.49.5,1.49,3.39-3.78,3.39-3.78l5.81-3s-1.71-1.86-1.89-2a8.83,8.83,0,0,0-2.72-1.84A3.33,3.33,0,0,0,339.18,260.65Z"/><path class="cls-8_seo-87" d="M338.19,265.55a13.22,13.22,0,0,0-2.89,4.95c-.07.22.28.32.36.1a12.66,12.66,0,0,1,2.79-4.78C338.61,265.64,338.35,265.38,338.19,265.55Z"/><path class="cls-8_seo-87" d="M336.49,264.42a14.24,14.24,0,0,0-4.28,7.13.19.19,0,0,0,.36.1,13.83,13.83,0,0,1,4.18-7C336.93,264.52,336.66,264.26,336.49,264.42Z"/><path class="cls-8_seo-87" d="M334.76,264a15.11,15.11,0,0,0-4.47,6.65.19.19,0,0,0,.36.1,14.61,14.61,0,0,1,4.37-6.48C335.2,264.13,334.94,263.87,334.76,264Z"/><path class="cls-9_seo-87" d="M365,241.53s-2.13,13.6-5,16.72S344.56,267,344.56,267s-3.15-5.55-6.49-6.85c0,0,12.83-7.21,13.15-8.57"/><path class="cls-8_seo-87" d="M354.45,232.42q-.31,4.4-.94,8.76a41.69,41.69,0,0,1-1.42,7.72c-.94,2.68-4.51,4.26-6.79,5.74s-4.81,3.07-7.25,4.56c-.55.34-.05,1.21.51.87,2.85-1.74,5.66-3.51,8.45-5.34,1.89-1.24,4.76-2.52,5.76-4.7,1.09-2.36,1.26-5.56,1.64-8.11.48-3.15.82-6.32,1-9.5C355.51,231.77,354.5,231.77,354.45,232.42Z"/></g><g id="Laptop_Screen_seo-87" data-name="Laptop Screen"><path class="cls-4_seo-87 targetColor" d="M89.87,172.59a6.06,6.06,0,0,0-3,5.3V327.13c-.22,3.05,3.22,5.87,6,4.27L154,296.6c2.45-1.41,114.33-64.34,114.33-67.17L274.39,73A2.93,2.93,0,0,0,270,70.37C242.75,85.82,102.26,165.39,89.87,172.59Z" style="fill: rgb(0, 148, 255);"/><polygon class="cls-14_seo-87" points="101.99 186.43 101.99 311.7 115.48 303.12 115.48 178.64 101.99 186.43"/><path class="cls-8_seo-87" d="M120.31,159.36,92.38,175.74a1.78,1.78,0,0,0-.88,1.53V326.41a1.21,1.21,0,0,0,1.81,1l175.16-101.9s.06,4.26-3.29,6.4S92.87,331.4,92.87,331.4s-4.66,2.11-6-3.46v-150a6.14,6.14,0,0,1,2.53-5C92.08,171,266,69.62,266,69.62s6.34-2.32,8.44,1.49l-136.31,78"/><path class="cls-15_seo-87" d="M279.69,39.37c-9.76,5.79-33.91,20.08-41.13,24.28a4,4,0,0,0-2,3.52v99.17c-.15,2,2.14,3.89,4,2.83l40.61-23.12a4.64,4.64,0,0,0,2.68-4.14V41.74A2.75,2.75,0,0,0,279.69,39.37Z"/><path class="cls-9_seo-87" d="M189.38,194.27l2.09,47.67s30.05-8.41,32.1-50.75l-1.37-8.65Z"/><path class="cls-15_seo-87" d="M189.38,194.27l8.16-44.74s21.59,1.19,23,35.94Z"/><path class="cls-3_seo-87" d="M184.27,250.65a26.61,26.61,0,0,1-4.71-.42c-10.33-1.84-18.81-9.55-23.89-21.7-4.78-11.44-6-25.64-3.45-40,5.51-30.86,26.15-52.12,47-48.4,10.32,1.84,18.81,9.55,23.89,21.7,4.78,11.44,6,25.63,3.45,40h0c-2.56,14.34-8.63,27.24-17.07,36.32C201.87,246.32,193.06,250.65,184.27,250.65Zm10.34-101.38c-14.21,0-28.87,17.8-33,41-2.24,12.56-1.22,24.85,2.86,34.62,3.79,9.06,9.75,14.74,16.77,16s14.58-2,21.27-9.2c7.21-7.76,12.42-18.94,14.66-31.5h0c2.25-12.56,1.23-24.86-2.86-34.63-3.78-9.06-9.74-14.74-16.76-16A16,16,0,0,0,194.61,149.27Z"/><line class="cls-3_seo-87" x1="243.96" y1="73.05" x2="276.29" y2="54.61"/><rect class="cls-3_seo-87" x="241.52" y="63.33" width="37.22" height="1" transform="translate(2.59 137.41) rotate(-29.73)"/><line class="cls-3_seo-87" x1="243.96" y1="80.41" x2="276.29" y2="61.97"/><rect class="cls-3_seo-87" x="241.52" y="70.69" width="37.22" height="1" transform="translate(-1.06 138.38) rotate(-29.73)"/><line class="cls-3_seo-87" x1="243.17" y1="89.63" x2="275.5" y2="71.19"/><rect class="cls-3_seo-87" x="240.73" y="79.91" width="37.22" height="1" transform="translate(-5.74 139.2) rotate(-29.73)"/><line class="cls-3_seo-87" x1="243.17" y1="96.99" x2="275.5" y2="78.55"/><rect class="cls-3_seo-87" x="240.73" y="87.27" width="37.22" height="1" transform="translate(-9.38 140.23) rotate(-29.74)"/><line class="cls-3_seo-87" x1="246.26" y1="128.63" x2="278.59" y2="110.19"/><rect class="cls-3_seo-87" x="243.82" y="118.91" width="37.22" height="1" transform="translate(-24.68 145.86) rotate(-29.73)"/><line class="cls-3_seo-87" x1="246.26" y1="135.99" x2="278.59" y2="117.56"/><rect class="cls-3_seo-87" x="243.82" y="126.27" width="37.22" height="1" transform="translate(-28.32 146.9) rotate(-29.74)"/><line class="cls-3_seo-87" x1="245.47" y1="145.21" x2="277.8" y2="126.77"/><rect class="cls-3_seo-87" x="243.03" y="135.49" width="37.22" height="1" transform="translate(-33 147.66) rotate(-29.73)"/><line class="cls-3_seo-87" x1="245.47" y1="152.57" x2="277.8" y2="134.14"/><rect class="cls-3_seo-87" x="243.03" y="142.85" width="37.22" height="1" transform="translate(-36.65 148.63) rotate(-29.73)"/><path class="cls-3_seo-87" d="M246.2,122.18s.51-14.15,6.49-13.07,5.95,3.57,9.74-.06,1.94-13.48,7.93-13.48S275.5,107,275.5,107Z"/><polygon class="cls-14_seo-87" points="122.56 175.84 122.56 278.18 133.59 271.17 133.59 169.48 122.56 175.84"/><path class="cls-9_seo-87" d="M68.17,243.59l65.35-37.73a3.43,3.43,0,0,1,5.15,3v49.89a5.44,5.44,0,0,1-2.76,4.73l-64.37,36.4a4.09,4.09,0,0,1-6.22-3.49V248.53A5.69,5.69,0,0,1,68.17,243.59Z"/><line class="cls-3_seo-87" x1="99.77" y1="245.17" x2="132.1" y2="226.73"/><rect class="cls-3_seo-87" x="97.32" y="235.45" width="37.22" height="1" transform="translate(-101.75 88.55) rotate(-29.73)"/><line class="cls-3_seo-87" x1="99.77" y1="252.53" x2="132.1" y2="234.09"/><rect class="cls-3_seo-87" x="97.32" y="242.81" width="37.22" height="1" transform="translate(-105.4 89.52) rotate(-29.73)"/><line class="cls-3_seo-87" x1="98.98" y1="261.75" x2="131.31" y2="243.31"/><rect class="cls-3_seo-87" x="96.53" y="252.03" width="37.22" height="1" transform="translate(-110.12 90.4) rotate(-29.74)"/><line class="cls-3_seo-87" x1="98.98" y1="269.11" x2="131.31" y2="250.67"/><rect class="cls-3_seo-87" x="96.53" y="259.39" width="37.22" height="1" transform="translate(-113.73 91.31) rotate(-29.73)"/><path class="cls-3_seo-87" d="M74.15,275.78V292.1l4.28-2.72v-16C77,274.13,75.54,274.91,74.15,275.78Z"/><path class="cls-3_seo-87" d="M82.72,265.34v22.05L87,284.67V263.25Z"/><path class="cls-3_seo-87" d="M91.29,254v28.91l4.28-2.72v-28C94.16,252.81,92.74,253.41,91.29,254Z"/></g><g id="Wallpad_seo-87"><g id="Wall_note_seo-87" data-name="Wall note"><polyline class="cls-10_seo-87" points="395.08 113.47 399.94 112.34 453.64 143.27 452.75 249.03 450.74 250.16"/><polygon class="cls-1_seo-87" points="395.08 113.47 394.47 217.83 450.74 250.16 450.74 144.93 395.08 113.47"/><polygon class="cls-3_seo-87" points="397.06 119.12 397.06 216.36 448.19 244.67 448.19 148.02 397.06 119.12"/><polyline class="cls-1_seo-87" points="419.24 139.41 419.24 164.24 402.83 156.37 402.83 135.39"/><path class="cls-2_seo-87" d="M401.61,129.39l17.63,10s.9,16.54-3.8,21.24l-16-7.93S404.93,140.46,401.61,129.39Z"/><polyline class="cls-1_seo-87" points="442.49 152.57 442.49 177.41 426.08 169.54 426.08 148.56"/><path class="cls-2_seo-87" d="M424.86,142.56l17.62,10s.91,16.54-3.79,21.24l-16-7.92S428.18,153.62,424.86,142.56Z"/><polyline class="cls-1_seo-87" points="419.24 172.66 419.24 197.49 402.83 189.62 402.83 168.64"/><path class="cls-2_seo-87" d="M401.61,162.64l17.63,10s.9,16.54-3.8,21.24l-16-7.93S404.93,173.71,401.61,162.64Z"/><polyline class="cls-1_seo-87" points="442.49 185.82 442.49 210.66 426.08 202.79 426.08 181.81"/><path class="cls-2_seo-87" d="M424.86,175.81l17.62,10s.91,16.53-3.79,21.24l-16-7.93S428.18,186.88,424.86,175.81Z"/><polyline class="cls-1_seo-87" points="425.88 211.56 425.88 225.84 416.46 221.31 416.46 209.25"/><path class="cls-2_seo-87" d="M415.76,205.81l10.13,5.75s.51,9.51-2.19,12.21l-9.22-4.55S417.66,212.17,415.76,205.81Z"/><polyline class="cls-1_seo-87" points="439.96 219.51 439.96 233.78 430.54 229.26 430.54 217.2"/><path class="cls-2_seo-87" d="M429.83,213.76,440,219.51s.52,9.51-2.18,12.21l-9.22-4.55S431.74,220.12,429.83,213.76Z"/><polyline class="cls-1_seo-87" points="411.77 203.97 411.77 218.24 402.34 213.71 402.34 201.66"/><path class="cls-2_seo-87" d="M401.64,198.21,411.77,204s.52,9.5-2.19,12.2l-9.21-4.55S403.54,204.57,401.64,198.21Z"/></g><path class="cls-3_seo-87" d="M438.55,155.15a.82.82,0,0,0-.8-.09.79.79,0,0,0-.57.74v.08c-.34.3-1,.71-1.13.84-.52.45-1,.9-1.54,1.37-.81.76-1.59,1.57-2.34,2.39L430.37,157c-.46-.88-1.8-.1-1.34.78l2.31,4.39a.78.78,0,0,0,1.21.16,44.12,44.12,0,0,1,3.72-3.77c.74-.67,2.44-1.53,2.64-2.57A.81.81,0,0,0,438.55,155.15Z"/><path class="cls-3_seo-87" d="M413.21,176.36l-4,4.1c-.79.8-.56.79-1.14-.19L406.74,178a.77.77,0,0,0-1.33.78c.62,1.06,1.7,4.32,3.36,3.95,1-.22,1.7-1.35,2.37-2l3.16-3.24A.77.77,0,0,0,413.21,176.36Z"/><path class="cls-3_seo-87" d="M436.61,221.68c-.51.46-1,.89-1.56,1.32-.29-.7-.59-1.41-.85-2.12-.34-.93-1.83-.53-1.49.41s.71,1.82,1.09,2.71c-.67.52-1.35,1-2,1.49s-.05,1.9.78,1.34c.64-.44,1.27-.92,1.89-1.39.35.77.7,1.54,1.08,2.3s1.78.11,1.33-.78-.79-1.65-1.16-2.48c.68-.55,1.37-1.11,2-1.7S437.34,221,436.61,221.68Z"/></g><g id="Character_Female_seo-87" data-name="Character Female"><path class="cls-4_seo-87 targetColor" d="M120.85,244a22.86,22.86,0,0,1-4.57-.46,24.35,24.35,0,0,1-16.36-12.23,32.3,32.3,0,0,1,8.2-40.49,23.86,23.86,0,0,1,36.18,7.33,31.34,31.34,0,0,1,3.22,21.73C144.66,234,133.22,244,120.85,244Zm2.49-53.44a19.89,19.89,0,0,0-12.11,4.31,27.19,27.19,0,0,0-6.87,33.92,19.28,19.28,0,0,0,12.93,9.75c11.25,2.28,22.57-6.55,25.23-19.68a26.22,26.22,0,0,0-2.66-18.19,19.28,19.28,0,0,0-12.93-9.75A18.14,18.14,0,0,0,123.34,190.53Z" style="fill: rgb(0, 148, 255);"/><path class="cls-4_seo-87 targetColor" d="M146,225.11l41,20.2s1.65,5.36-1.92,6.72-45.24-21.14-45.24-21.14" style="fill: rgb(0, 148, 255);"/><g class="cls-16_seo-87"><path class="cls-8_seo-87" d="M120.85,244a22.86,22.86,0,0,1-4.57-.46,24.35,24.35,0,0,1-16.36-12.23,32.3,32.3,0,0,1,8.2-40.49,23.86,23.86,0,0,1,36.18,7.33,31.34,31.34,0,0,1,3.22,21.73C144.66,234,133.22,244,120.85,244Zm2.49-53.44a19.89,19.89,0,0,0-12.11,4.31,27.19,27.19,0,0,0-6.87,33.92,19.28,19.28,0,0,0,12.93,9.75c11.25,2.28,22.57-6.55,25.23-19.68a26.22,26.22,0,0,0-2.66-18.19,19.28,19.28,0,0,0-12.93-9.75A18.14,18.14,0,0,0,123.34,190.53Z"/><path class="cls-8_seo-87" d="M146,225.11l41,20.2s1.65,5.36-1.92,6.72-45.24-21.14-45.24-21.14"/></g><path class="cls-13_seo-87" d="M168.35,237c-2.43-1.24-4.83-2.54-7.18-3.91a27.68,27.68,0,0,0-1.4-2.64,3.67,3.67,0,0,0-3.77-2,1.26,1.26,0,0,0,.09,2.5c.07.08.13.16.2.23-2.93.14-8.21.57-7,3.45a2.65,2.65,0,0,0-.29.29,1.86,1.86,0,0,0,.17,2.54,2.18,2.18,0,0,0,2,.54,2,2,0,0,0,2.57,1l.72-.22a1.14,1.14,0,0,0,1.37,1.26c.81-.17,1.61-.32,2.42-.47,5.49,1.75,8.21,2.38,10.28,3.79.86.58,0,.79,0,0a1.16,1.16,0,0,0-.26-1.66l-.24-.17a1.17,1.17,0,0,0,.2-1.69l-.29-.34A1.31,1.31,0,0,0,168.35,237Z"/><path class="cls-1_seo-87" d="M196.45,321.27l1.33,18.87-2.36,2.05-2.62-.68s.34-5-.58-6.09-2.5,4.33-3.39,4.3-11.59-2.89-11.75-4.2c-.2-1.74,2.2-3.73,6.74-2.63,4.91,1.19,5.76-4.34,6.54-9.65"/><path class="cls-2_seo-87" d="M188.77,325.05s4.66,2,12.67-3.15c0,0-2.77-25-2.53-29.34s5.06-35.43-.89-42.3-16.61,59.15-16.11,59.51"/><path class="cls-8_seo-87" d="M192.66,336.15l-.44-.73a2.63,2.63,0,0,0-2.6-.62c-1.29.6-1.1,5.08-1.1,5.08l4.45-1.67A4.79,4.79,0,0,0,192.66,336.15Z"/><path class="cls-1_seo-87" d="M181.91,330.53l-.46,18.91-2.55,1.81-2.54-.93s.81-4.94,0-6.11-2.9,4.07-3.79,4-11.26-4-11.29-5.29c0-1.76,2.54-3.51,6.95-2,4.78,1.65,6.16-3.77,7.43-9"/><path class="cls-8_seo-87" d="M176.73,345l-.37-.76a2.64,2.64,0,0,0-2.53-.87c-1.34.47-1.58,5-1.58,5l4.59-1.23A4.9,4.9,0,0,0,176.73,345Z"/><path class="cls-2_seo-87" d="M180.36,257.65s-7.91,21.34-9.71,30.6-1.87,43.91-1.23,44.84,8.34,2.58,13.53,2.49,4.48-41,4.48-41,14.13-35.82,10.35-39.76S180.36,257.65,180.36,257.65Z"/><path class="cls-1_seo-87" d="M180,258.05c7.19,2.27,16.31-.45,20.71-6.62-.83-10.11-2.57-26.81-5.16-29.31-3.75-3.62-11.87,1.52-14.81,6.57-1.52,2.61-4.38,11.89-4.38,11.89l-11.06-6.3L162,242.15s7.57,14.28,17.82,11Z"/><path class="cls-3_seo-87" d="M187,239.51a.42.42,0,0,0-.84,0c0,3.21-.1,6.64-1.65,9.54a8,8,0,0,1-6.36,4.49c-.54,0-.54.87,0,.85a8.76,8.76,0,0,0,6.91-4.61C186.82,246.7,187,243,187,239.51Z"/><path class="cls-15_seo-87" d="M183.09,203.75c-.58.13-1.52,1.05-2.92,4.35s2,7.5,3.41,8.38,3.58,4.32,3.58,4.32,5.37,1.3,9-5.27S191.8,201.85,183.09,203.75Z"/><path class="cls-13_seo-87" d="M181.58,207.42s-2.71,11,1.28,13.49,9.35-4.15,9.87-6.81S190.33,205.68,181.58,207.42Z"/><path class="cls-15_seo-87" d="M181.58,207.42s-.67,7.17,3,8.75,3.79,3.82,3.79,3.82,6.8-3.63,7.51-6.85S186.77,204.54,181.58,207.42Z"/><path class="cls-15_seo-87" d="M194.06,216c-1.35,10.75,1.36,24.53-3.11,34.62-.27.62-.87,3.42-1.33,3.42l10.85-5.91c4.35-2.7,7.52-4.43,6-11.27s-10.3-21.37-10.3-21.37Z"/><path class="cls-3_seo-87" d="M177.51,235.21a83.91,83.91,0,0,0-1.61,8.65c-.07.54.78.53.85,0a82.87,82.87,0,0,1,1.58-8.43A.42.42,0,0,0,177.51,235.21Z"/><path class="cls-8_seo-87" d="M192.79,220.9l-1-2.18a48.47,48.47,0,0,1-6.21,2.66c-2.56.78-1.84,3.73-1.84,3.73S189.65,225.12,192.79,220.9Z"/></g></svg>